<svg xmlns="http://www.w3.org/2000/svg" xmlns:xlink="http://www.w3.org/1999/xlink" version="1.0" x="0px" y="0px" viewBox="0 0 100 125" enable-background="new 0 0 100 100" xml:space="preserve"><g><path d="M50.5,39c-8.8,0-18.6-1.8-22.9-6.3c-0.6-0.6-0.5-1.5,0-2.1c0.6-0.6,1.5-0.5,2.1,0c3.6,3.8,14.1,6,24.8,5.2   c8.4-0.6,14.8-2.9,17.1-6.2c0.5-0.7,1.4-0.8,2-0.3c0.7,0.5,0.8,1.4,0.3,2c-2.9,4-9.9,6.7-19.3,7.4C53.4,38.9,52,39,50.5,39z"/></g><path d="M93,54.2c-2.6-3.5-7-4.7-13.2-3.4c-1.7,0.3-3.2,0.8-4.8,1.5c1.7-6.8,3.8-13.9,5-18.2c0.8-2.9,1-3.5,1-3.8  c0.6-3.5,0.6-7.1-2.7-10c-4.8-4.1-15.1-8.2-27.4-8.2c-10.1,0-19.6,2.8-27.5,8.1c-4.7,3.1-3.1,9.4-2.2,11.6c2.6,5.6,4,13.9,4.8,20.2  c-0.1,0-0.1,0-0.2-0.1c-3.5-1.1-9.8-2.6-13.5-0.6C6.5,54.5,5,60.2,5.2,66.4C5.4,73.3,9.9,79.5,17.3,83c6.4,3.1,13.3,3.5,18.5,3.5  c0.3,0,0.6,0,0.9,0c2,0.1,3.9,0.2,5.8,0.2c27.4,0,48.8-13.1,51.6-18.1C94.8,67.3,96.7,59.3,93,54.2z M25,22.5  c9.4-6.2,19.3-7.5,26-7.5c11.6,0,21.1,3.8,25.5,7.5c1.9,1.6,2.4,3.6,1.8,7.3c-0.1,0.2-0.5,1.7-1,3.5c-1.4,4.8-3.8,13.2-5.7,20.8  c-2,1.2-3.7,2.7-5.4,4.2c-0.2,0.1-0.4,0.1-0.6,0.2c-0.4,0.1-0.8,0.2-1.2,0.4c-0.3,0.1-0.7,0.2-1,0.3c-0.4,0.1-0.8,0.2-1.3,0.3  c-0.4,0.1-0.8,0.2-1.2,0.2c-0.4,0.1-0.8,0.2-1.2,0.2c-0.4,0.1-0.8,0.1-1.3,0.2c-0.4,0.1-0.8,0.1-1.2,0.2c-0.5,0.1-1,0.1-1.4,0.2  c-0.4,0-0.7,0.1-1.1,0.1c-0.6,0-1.1,0.1-1.7,0.1c-0.3,0-0.6,0-0.9,0.1c-0.9,0-1.7,0.1-2.6,0.1c-0.8,0-7.2-0.1-12-1.4  c-3.5-1-6.5-2.4-6.6-2.4c-0.3-0.1-0.5-0.3-0.8-0.4c-0.2-0.1-0.3-0.2-0.5-0.3C28.8,50,27.4,38,23.9,30.5C23.9,30.4,21.6,24.9,25,22.5  z M35.9,83.6c-5.2,0-11.4-0.4-17.3-3.2c-6.4-3-10.3-8.3-10.5-14.1c-0.1-5.2,0.7-9.8,5.7-12.5c2.6-1.4,8.1-0.3,11.2,0.8  c0.5,0.2,1,0.3,1.5,0.5c0,0.4,0.1,0.8,0.1,1.2l0.2,2c0.1,1.1,0.2,2.2,0.3,3c0.7,5.3,1,5.7,1.1,6c0.6,0.9,1.3,1.7,2.1,2.4  c0,0,3.6,2.7,7.5,3.9c4.3,1.4,9.7,1.7,11,1.7c1.6,0,3.1-0.1,4.7-0.2c-0.2,0.2-0.3,0.4-0.5,0.6l-0.2,0.2  C49.9,78.9,45.4,83.6,35.9,83.6z M91.6,67.1C89.8,70.5,72.2,82,47.9,83.6c3.3-1.8,5.5-4.1,7.1-5.7l0.2-0.2c0.8-0.8,1.7-2.2,2.9-4.2  c3.9-6.2,11.2-17.6,22.2-19.8c1.4-0.3,2.7-0.4,3.8-0.4c2.9,0,5.1,0.9,6.4,2.7C93.4,59.6,92,66.3,91.6,67.1z"/><text x="0" y="115" fill="#000000" font-size="5px" font-weight="bold" font-family="'Helvetica Neue', Helvetica, Arial-Unicode, Arial, Sans-serif">Created by Isabel Martínez Isabel</text><text x="0" y="120" fill="#000000" font-size="5px" font-weight="bold" font-family="'Helvetica Neue', Helvetica, Arial-Unicode, Arial, Sans-serif">from the Noun Project</text></svg>